<svg height="384pt" viewBox="0 0 384 384" width="384pt" xmlns="http://www.w3.org/2000/svg"><path d="m336 160c17.679688 0 32 14.320312 32 32s-14.320312 32-32 32h-20c-3.039062 11.761719-7.679688 22.878906-13.679688 33.039062l14.160157 14.160157c12.480469 12.480469 12.480469 32.722656 0 45.28125-12.558594 12.480469-32.800781 12.480469-45.28125 0l-14.160157-14.160157c-10.160156 6-21.277343 10.640626-33.039062 13.679688v20c0 17.679688-14.320312 32-32 32s-32-14.320312-32-32v-20c-11.761719-3.039062-22.878906-7.679688-33.039062-13.679688l-14.160157 14.160157c-12.480469 12.480469-32.722656 12.480469-45.28125 0-12.480469-12.558594-12.480469-32.800781 0-45.28125l14.160157-14.160157c-6-10.160156-10.640626-21.277343-13.679688-33.039062h-20c-17.679688 0-32-14.320312-32-32s14.320312-32 32-32h20c3.039062-11.761719 7.679688-22.878906 13.679688-33.039062l-14.160157-14.160157c-12.480469-12.480469-12.480469-32.722656 0-45.28125 12.558594-12.480469 32.800781-12.480469 45.28125 0l14.160157 14.160157c10.160156-6 21.277343-10.640626 33.039062-13.679688v-20c0-17.679688 14.320312-32 32-32s32 14.320312 32 32v20c11.761719 3.039062 22.878906 7.679688 33.039062 13.679688l14.160157-14.160157c12.480469-12.480469 32.722656-12.480469 45.28125 0 12.480469 12.558594 12.480469 32.800781 0 45.28125l-14.160157 14.160157c6 10.160156 10.640626 21.277343 13.679688 33.039062zm-72 32c0-39.761719-32.238281-72-72-72s-72 32.238281-72 72 32.238281 72 72 72 72-32.238281 72-72zm0 0" fill="#4dd0e1"/><g fill="#012e52"><path d="m336 144h-8.238281c-1.691407-4.792969-3.632813-9.472656-5.816407-14.039062l5.839844-5.839844c18.664063-18.664063 18.679688-49.113282-.03125-67.945313-18.761718-18.648437-49.210937-18.625-67.875.03125l-5.839844 5.839844c-4.566406-2.183594-9.253906-4.117187-14.039062-5.816406v-8.230469c0-26.472656-21.527344-48-48-48s-48 21.527344-48 48v8.238281c-4.792969 1.691407-9.472656 3.632813-14.039062 5.816407l-5.839844-5.839844c-18.65625-18.664063-49.105469-18.671875-67.945313.03125-18.648437 18.761718-18.632812 49.210937.03125 67.875l5.839844 5.839844c-2.183594 4.566406-4.117187 9.253906-5.816406 14.039062h-8.230469c-26.472656 0-48 21.527344-48 48s21.527344 48 48 48h8.238281c1.691407 4.792969 3.632813 9.472656 5.816407 14.039062l-5.839844 5.839844c-18.664063 18.664063-18.679688 49.113282.03125 67.945313 9.378906 9.320312 21.664062 13.976562 33.945312 13.976562 12.304688 0 24.59375-4.664062 33.929688-14.007812l5.839844-5.839844c4.566406 2.183594 9.253906 4.117187 14.039062 5.816406v8.230469c0 26.472656 21.527344 48 48 48s48-21.527344 48-48v-8.238281c4.792969-1.691407 9.472656-3.632813 14.039062-5.816407l5.839844 5.839844c9.328125 9.335938 21.601563 14 33.898438 14 12.300781 0 24.621094-4.671875 34.039062-14.03125 18.648438-18.761718 18.632813-49.210937-.03125-67.875l-5.839844-5.839844c2.183594-4.566406 4.117188-9.253906 5.816407-14.039062h8.238281c26.472656 0 48-21.527344 48-48s-21.527344-48-48-48zm0 64h-20c-.34375 0-.664062.078125-1 .105469-.617188.039062-1.222656.070312-1.824219.183593-.464843.078126-.910156.214844-1.359375.335938-.542968.152344-1.089844.296875-1.609375.503906-.453125.175782-.878906.390625-1.3125.605469-.488281.25-.972656.488281-1.4375.785156-.402343.25-.761719.535157-1.136719.824219-.449218.34375-.886718.679688-1.296874 1.0625-.335938.320312-.632813.664062-.933594 1.007812-.378906.425782-.746094.84375-1.074219 1.304688-.289063.402344-.527344.832031-.777344 1.257812-.261719.457032-.535156.902344-.757812 1.390626-.234375.511718-.410157 1.058593-.59375 1.601562-.109375.34375-.285157.664062-.375 1.023438-2.632813 10.199218-6.664063 19.929687-11.96875 28.902343-.183594.320313-.285157.65625-.453125.984375-.265625.519532-.53125 1.03125-.730469 1.578125-.175781.480469-.304687.96875-.429687 1.453125-.136719.503906-.273438 1.011719-.363282 1.523438-.085937.527344-.117187 1.046875-.152344 1.574218-.03125.503907-.070312.992188-.054687 1.496094.015625.519532.082031 1.023438.144531 1.542969.0625.511719.128906 1.015625.238282 1.511719.113281.496094.273437.96875.433593 1.457031.160157.496094.320313.984375.527344 1.464844.21875.488281.480469.953125.753906 1.421875.238281.425781.472657.851562.75 1.257812.34375.496094.753907.953125 1.152344 1.40625.226563.257813.402344.546875.640625.785156l14.160156 14.160157c6.222656 6.222656 6.207032 16.410156.03125 22.625-6.28125 6.246093-16.457031 6.261719-22.6875.03125l-14.160156-14.160157c-.253906-.265624-.558594-.449218-.832031-.679687-.441407-.382813-.863281-.769531-1.335938-1.097656-.433593-.300781-.878906-.542969-1.335937-.796875-.449219-.25-.878906-.503906-1.34375-.714844-.496094-.222656-1.007813-.382812-1.519532-.550781-.464843-.152344-.929687-.304688-1.410156-.414063-.503906-.113281-1.015625-.179687-1.535156-.242187-.511719-.0625-1.015625-.128907-1.535156-.144531-.496094-.015626-.984375.023437-1.472656.058593-.535157.03125-1.0625.0625-1.597657.148438-.503906.082031-.992187.226562-1.488281.355469-.503906.132812-1 .253906-1.488281.4375-.539063.199218-1.050781.464843-1.5625.722656-.328125.167968-.664063.261718-.984375.453125-8.980469 5.304687-18.703125 9.335937-28.902344 11.96875-.359375.097656-.671875.257812-1.015625.375-.550781.183593-1.097656.359375-1.617187.601562-.472657.214844-.910157.480469-1.359376.734375-.441406.257813-.886718.503906-1.304687.808594-.4375.320312-.839844.671875-1.246094 1.023438-.367187.320312-.738281.640624-1.074219.992187-.367187.386719-.6875.800781-1.007812 1.226563-.304688.398437-.613281.789062-.878906 1.214843-.273438.433594-.503906.886719-.734375 1.351563-.234375.457031-.464844.914062-.65625 1.398437-.195313.496094-.328125 1.019531-.472657 1.53125-.128906.46875-.273437.941407-.359374 1.429688-.105469.585937-.144532 1.183593-.175782 1.777343-.019531.34375-.097656.671876-.097656 1.023438v20c0 8.824219-7.175781 16-16 16s-16-7.175781-16-16v-20c0-.351562-.078125-.679688-.105469-1.03125-.039062-.601562-.070312-1.191406-.175781-1.777344-.085938-.488281-.222656-.960937-.359375-1.429687-.144531-.523438-.28125-1.035157-.472656-1.53125-.183594-.488281-.421875-.933594-.65625-1.398438-.230469-.457031-.453125-.910156-.734375-1.351562-.273438-.425781-.574219-.816407-.878906-1.214844-.320313-.417969-.640626-.832031-1.007813-1.226563-.335937-.351562-.707031-.671874-1.074219-.992187-.40625-.359375-.808594-.710937-1.246094-1.023437-.417968-.296876-.855468-.542969-1.304687-.808594-.449219-.253906-.878906-.519532-1.359375-.734375-.519531-.242188-1.066406-.417969-1.617188-.601563-.34375-.109375-.65625-.277344-1.015624-.375-10.199219-2.632812-19.929688-6.664062-28.902344-11.96875-.3125-.183594-.648438-.289062-.96875-.445312-.527344-.265625-1.050782-.539063-1.601563-.738282-.464843-.175781-.945312-.289062-1.414062-.414062-.519531-.144531-1.042969-.28125-1.570313-.371094-.503906-.078125-1.007812-.109375-1.511718-.140625-.519532-.035156-1.039063-.074219-1.558594-.058593-.496094.015624-.984375.082031-1.472656.144531-.535157.0625-1.0625.128906-1.585938.25-.46875.101562-.925781.261719-1.382812.40625-.519532.167969-1.023438.328125-1.527344.550781-.472656.210938-.910156.464844-1.367188.722656-.441406.246094-.890625.488282-1.3125.78125-.488281.335938-.929687.730469-1.375 1.121094-.265625.230469-.5625.410156-.808594.664062l-14.160156 14.160157c-6.226562 6.222656-16.402344 6.207031-22.625.03125-6.246094-6.289063-6.261718-16.464844-.03125-22.6875l14.160156-14.160157c.246094-.246093.414063-.527343.640626-.785156.398437-.453125.808593-.910156 1.152343-1.40625.277344-.40625.511719-.832031.75-1.257812.265625-.46875.535157-.925782.753907-1.421875.207031-.480469.367187-.96875.527343-1.464844.160157-.480469.320313-.960937.429688-1.457031.113281-.503906.175781-1.007813.242187-1.511719.0625-.511719.136719-1.023437.144532-1.542969.015624-.503906-.023438-.992187-.058594-1.496094-.03125-.527343-.0625-1.046874-.152344-1.574218-.085938-.511719-.222656-1.019532-.359375-1.523438-.125-.484375-.246094-.972656-.429687-1.453125-.203126-.546875-.464844-1.058593-.730469-1.578125-.160157-.328125-.261719-.664062-.453125-.984375-5.304688-8.984375-9.335938-18.703125-11.96875-28.902343-.097656-.359376-.265625-.679688-.375-1.023438-.1875-.542969-.355469-1.082031-.585938-1.59375-.222656-.488281-.496094-.941406-.761718-1.398438-.246094-.425781-.484376-.855468-.773438-1.257812-.328125-.460938-.695312-.878906-1.074219-1.292969-.308593-.355469-.605469-.699219-.941406-1.019531-.402344-.375-.832031-.710938-1.273437-1.046875-.382813-.296875-.75-.582031-1.160157-.847656-.449219-.289063-.917969-.519531-1.390625-.757813-.449218-.226562-.890625-.457031-1.359375-.640625-.503906-.191406-1.015625-.335937-1.546875-.480469-.46875-.128906-.941406-.273437-1.429687-.359374-.578125-.105469-1.160157-.136719-1.753907-.175782-.335937-.019531-.679687-.097656-1.039062-.097656h-20c-8.824219 0-16-7.175781-16-16s7.175781-16 16-16h19.984375.03125c.023437 0 .046875-.015625.082031-.015625 1.597656-.007813 3.117188-.320313 4.574219-.769531.28125-.085938.550781-.152344.824219-.253906 1.425781-.519532 2.742187-1.234376 3.945312-2.113282.222656-.160156.414063-.34375.621094-.519531 1.21875-.992187 2.328125-2.105469 3.203125-3.398437.023437-.035157.03125-.074219.054687-.105469.886719-1.335938 1.519532-2.832031 1.976563-4.410157.046875-.148437.152344-.269531.191406-.429687 2.632813-10.199219 6.664063-19.929687 11.96875-28.90625.183594-.316406.285157-.652344.453125-.980469.265625-.523437.53125-1.035156.730469-1.578125.175781-.480469.304687-.96875.429687-1.457031.136719-.503906.273438-1.007812.363282-1.519531.085937-.527344.117187-1.046875.152344-1.574219.03125-.503906.070312-.992188.054687-1.496094-.015625-.519531-.082031-1.023437-.144531-1.542968-.0625-.515626-.128906-1.019532-.238282-1.515626-.113281-.492187-.273437-.964843-.433593-1.453124-.160157-.496094-.320313-.984376-.527344-1.464844-.21875-.488282-.480469-.953125-.753906-1.425782-.238281-.421874-.472657-.847656-.75-1.253906-.34375-.496094-.753907-.953125-1.152344-1.410156-.226563-.253906-.402344-.542969-.640625-.78125l-14.160156-14.160156c-6.222656-6.226563-6.207032-16.410156-.03125-22.625 6.289062-6.238282 16.464844-6.253906 22.6875-.03125l14.160156 14.160156c.03125.03125.0625.046875.097656.070312.191406.191407.414063.328126.621094.511719.761719.679688 1.5625 1.28125 2.410156 1.792969.335938.199219.679688.367188 1.03125.542969.808594.410156 1.640625.738281 2.488282 1 .34375.105469.679687.226562 1.03125.304687 1.175781.273438 2.367187.457032 3.574218.457032.027344 0 .050782.007812.074219.007812.046875 0 .09375-.015625.144531-.015625 1.191406-.015625 2.367188-.191406 3.535156-.472656.351563-.089844.695313-.199219 1.046876-.3125.960937-.296875 1.890624-.6875 2.792968-1.175781.191406-.105469.40625-.136719.601563-.246094 8.984375-5.304688 18.703125-9.335938 28.902343-11.96875.359376-.097656.671876-.257813 1.015626-.375.550781-.1875 1.097656-.363282 1.617187-.601563.472656-.214843.910156-.480469 1.359375-.734375.441406-.257812.886719-.507812 1.304688-.808594.4375-.320312.839843-.671874 1.246093-1.023437.371094-.320313.738281-.640625 1.074219-.992187.367188-.386719.6875-.800782 1.007812-1.226563.304688-.398437.613282-.792969.878907-1.214844.273437-.433593.503906-.886719.734375-1.351562.234375-.457031.464844-.914063.65625-1.402344.195312-.496094.328125-1.015625.472656-1.527344.128906-.472656.273438-.941406.359375-1.429687.105469-.585938.144531-1.183594.175781-1.777344.011719-.320312.089844-.648438.089844-1v-20c0-8.824219 7.175781-16 16-16s16 7.175781 16 16v20c0 .351562.078125.679688.105469 1.03125.039062.601562.070312 1.191406.175781 1.777344.085938.488281.222656.960937.359375 1.429687.144531.523438.28125 1.035157.472656 1.53125.183594.488281.421875.933594.65625 1.398438.230469.457031.453125.910156.734375 1.351562.273438.425781.574219.816407.878906 1.214844.320313.417969.640626.832031 1.007813 1.226563.335937.351562.707031.671874 1.074219.992187.40625.359375.808594.710937 1.246094 1.023437.417968.296876.855468.542969 1.304687.808594.449219.253906.878906.519532 1.359375.734375.519531.242188 1.066406.417969 1.617188.601563.34375.109375.65625.277344 1.015624.375 10.199219 2.632812 19.929688 6.664062 28.902344 11.96875.195313.109375.402344.144531.601563.253906.902343.480469 1.824219.875 2.785156 1.175781.351563.113281.695313.226563 1.046875.3125 1.167969.28125 2.34375.457031 3.535156.472657.050782 0 .097656.015624.144532.015624.023437 0 .046874-.007812.074218-.007812 1.199219-.007812 2.398438-.183594 3.574219-.457031.351563-.078125.6875-.199219 1.03125-.300781.855469-.265626 1.679687-.59375 2.496094-1 .351562-.175782.695312-.34375 1.03125-.546876.847656-.503906 1.648437-1.109374 2.410156-1.789062.199219-.179688.421875-.320312.625-.515625.03125-.03125.0625-.046875.09375-.070313l14.160156-14.160156c6.234375-6.222656 16.410157-6.191406 22.625-.03125 6.246094 6.289063 6.261719 16.464844.03125 22.6875l-14.160156 14.160156c-.246094.246094-.414063.527344-.640625.785157-.398438.453125-.808594.910156-1.152344 1.40625-.277344.410156-.511718.832031-.75 1.257812-.265625.472657-.535156.925781-.753906 1.421875-.207031.480469-.367188.96875-.527344 1.464844-.160156.480469-.320312.960938-.429687 1.457031-.113281.503907-.175781 1.007813-.242188 1.511719-.0625.511719-.136719 1.023438-.144531 1.542969-.015625.503906.023438.992187.058594 1.496093.03125.527344.0625 1.046876.152344 1.578126.085937.511718.222656 1.015624.359374 1.519531.125.488281.246094.972656.429688 1.453125.199219.546875.464844 1.058594.730469 1.578125.160156.328125.261719.664062.453125.984375 5.304687 8.984375 9.335937 18.703125 11.96875 28.902344.039062.160156.144531.273437.191406.433593.457031 1.574219 1.089844 3.0625 1.96875 4.398438.023438.03125.03125.074219.054688.105469.882812 1.296874 1.984374 2.40625 3.195312 3.390624.214844.175782.40625.359376.628906.527344 1.203125.882813 2.523438 1.585938 3.9375 2.105469.273438.105469.550782.175781.832032.253906 1.457031.449219 2.976562.753907 4.574218.761719.027344 0 .050782.015625.082032.015625h.03125 19.976562c8.824219 0 16 7.175781 16 16s-7.175781 15.984375-16 15.984375zm0 0"/><path d="m192 104c-48.519531 0-88 39.480469-88 88s39.480469 88 88 88 88-39.480469 88-88-39.480469-88-88-88zm0 144c-30.878906 0-56-25.121094-56-56s25.121094-56 56-56 56 25.121094 56 56-25.121094 56-56 56zm0 0"/></g></svg>